<?xml version="1.0" encoding="UTF-8" standalone="no"?>
<svg width="116px" height="54px" viewBox="0 0 116 54" version="1.1" xmlns="http://www.w3.org/2000/svg" xmlns:xlink="http://www.w3.org/1999/xlink">
    <!-- Generator: Sketch 50.2 (55047) - http://www.bohemiancoding.com/sketch -->
    <title>Combined Shape</title>
    <desc>Created with Sketch.</desc>
    <defs></defs>
    <g id="邀请页面" stroke="none" stroke-width="1" fill="none" fill-rule="evenodd">
        <g id="如何邀请" transform="translate(-50.000000, -1161.000000)" fill="#FA7023">
            <g id="Invited" transform="translate(0.000000, 937.000000)">
                <g id="image" transform="translate(50.000000, 224.000000)">
                    <g id="Group-8">
                        <path d="M101,54 L15,54 L15,0 L101,0 L101,54 Z M103,54 L103,0 L116,0 L116,3.12601749 C115.68038,3.043753 115.3453,3 115,3 C112.790861,3 111,4.790861 111,7 C111,9.209139 112.790861,11 115,11 C115.3453,11 115.68038,10.956247 116,10.8739825 L116,16.1260175 C115.68038,16.043753 115.3453,16 115,16 C112.790861,16 111,17.790861 111,20 C111,22.209139 112.790861,24 115,24 C115.3453,24 115.68038,23.956247 116,23.8739825 L116,29.1260175 C115.68038,29.043753 115.3453,29 115,29 C112.790861,29 111,30.790861 111,33 C111,35.209139 112.790861,37 115,37 C115.3453,37 115.68038,36.956247 116,36.8739825 L116,42.1260175 C115.68038,42.043753 115.3453,42 115,42 C112.790861,42 111,43.790861 111,46 C111,48.209139 112.790861,50 115,50 C115.3453,50 115.68038,49.956247 116,49.8739825 L116,54 L103,54 Z M13,54 L0,54 L0,50 C2.209139,50 4,48.209139 4,46 C4,43.790861 2.209139,42 0,42 L0,37 C2.209139,37 4,35.209139 4,33 C4,30.790861 2.209139,29 0,29 L0,24 C2.209139,24 4,22.209139 4,20 C4,17.790861 2.209139,16 0,16 L0,11 C2.209139,11 4,9.209139 4,7 C4,4.790861 2.209139,3 0,3 L0,0 L13,0 L13,54 Z" id="Combined-Shape"></path>
                    </g>
                </g>
            </g>
        </g>
    </g>
</svg>