<svg width="27" height="159" xmlns="http://www.w3.org/2000/svg"><g fill="#FFF" fill-rule="evenodd"><path d="M.834.417h26a12.96 12.96 0 0 1-3.808 9.193c-5.076 5.077-13.307 5.077-18.384 0A12.96 12.96 0 0 1 .834.417zM.834 158.558h26a12.96 12.96 0 0 0-3.808-9.193c-5.076-5.077-13.307-5.077-18.384 0a12.96 12.96 0 0 0-3.808 9.193zM13.849 135.758a1 1 0 1 0 0 2 1 1 0 0 0 0-2zm0-42.983a1 1 0 1 0 0 2 1 1 0 0 0 0-2zm0-42.984a1 1 0 1 0 0 2 1 1 0 0 0 0-2zm0 78.803a1 1 0 1 0 0 2 1 1 0 0 0 0-2zm0-42.983a1 1 0 1 0 0 2 1 1 0 0 0 0-2zm0 35.82a1 1 0 1 0 0 2 1 1 0 0 0 0-2zm0-42.984a1 1 0 1 0 0 2 1 1 0 0 0 0-2zm0-35.82a1 1 0 1 0 0 2 1 1 0 0 0 0-2zm0 71.64a1 1 0 1 0 0 2 1 1 0 0 0 0-2zm0-42.984a1 1 0 1 0 0 2 1 1 0 0 0 0-2zm0-35.82a1 1 0 1 0 0 2 1 1 0 0 0 0-2zm0 71.64a1 1 0 1 0 0 2 1 1 0 0 0 0-2zm0-42.984a1 1 0 1 0 0 2 1 1 0 0 0 0-2zm0-35.82a1 1 0 1 0 0 2 1 1 0 0 0 0-2zm0 71.64a1 1 0 1 0 0 2 1 1 0 0 0 0-2zm0-42.984a1 1 0 1 0 0 2 1 1 0 0 0 0-2zm0-35.82a1 1 0 1 0 0 2 1 1 0 0 0 0-2z"/></g></svg>