<svg height="54" viewBox="0 0 116 54" width="116" xmlns="http://www.w3.org/2000/svg" xmlns:xlink="http://www.w3.org/1999/xlink"><linearGradient id="a" x1="100%" x2="0%" y1="0%" y2="100%"><stop offset="0" stop-color="#fb8528"/><stop offset="1" stop-color="#f74318"/></linearGradient><path d="m101 54h-86v-54h86zm2 0v-54h13v3.12601749c-.31962-.08226449-.6547-.12601749-1-.12601749-2.209139 0-4 1.790861-4 4s1.790861 4 4 4c.3453 0 .68038-.043753 1-.1260175v5.252035c-.31962-.0822645-.6547-.1260175-1-.1260175-2.209139 0-4 1.790861-4 4s1.790861 4 4 4c.3453 0 .68038-.043753 1-.1260175v5.252035c-.31962-.0822645-.6547-.1260175-1-.1260175-2.209139 0-4 1.790861-4 4s1.790861 4 4 4c.3453 0 .68038-.043753 1-.1260175v5.252035c-.31962-.0822645-.6547-.1260175-1-.1260175-2.209139 0-4 1.790861-4 4s1.790861 4 4 4c.3453 0 .68038-.043753 1-.1260175v4.1260175zm-90 0h-13v-4c2.209139 0 4-1.790861 4-4s-1.790861-4-4-4v-5c2.209139 0 4-1.790861 4-4s-1.790861-4-4-4v-5c2.209139 0 4-1.790861 4-4s-1.790861-4-4-4v-5c2.209139 0 4-1.790861 4-4s-1.790861-4-4-4v-3h13z" fill="url(#a)" fill-rule="evenodd" transform=""/></svg>