<svg width="45" height="37" xmlns="http://www.w3.org/2000/svg"><defs><linearGradient x1="117.497%" y1="113.678%" x2="0%" y2="0%" id="a"><stop stop-color="#AFF0A7" offset="0%"/><stop stop-color="#6ED36D" offset="100%"/></linearGradient></defs><path d="M53 35.828c0-6.379-6.333-11.577-13.442-11.577-7.53 0-13.46 5.198-13.46 11.577 0 6.388 5.93 11.575 13.46 11.575 1.575 0 3.166-.4 4.75-.8L48.647 49l-1.192-3.988c3.178-2.4 5.544-5.588 5.544-9.184zm-17.806-1.996c-.789 0-1.582-.79-1.582-1.598 0-.794.793-1.594 1.582-1.594 1.197 0 1.98.8 1.98 1.594 0 .808-.783 1.598-1.98 1.598zm8.705 0c-.783 0-1.572-.79-1.572-1.598 0-.794.79-1.594 1.572-1.594 1.186 0 1.98.8 1.98 1.594 0 .808-.794 1.598-1.98 1.598zm-5.63-10.726c.515 0 1.022.036 1.526.093C38.423 16.774 31.607 12 23.826 12 15.126 12 8 17.976 8 25.565c0 4.38 2.373 7.978 6.331 10.768l-1.58 4.8 5.532-2.796c1.98.393 3.568.8 5.543.8.497 0 .99-.025 1.478-.063a11.945 11.945 0 0 1-.488-3.343c0-6.97 5.936-12.625 13.453-12.625zm-8.508-4.323c1.191 0 1.98.788 1.98 1.99 0 1.195-.789 1.995-1.98 1.995-1.186 0-2.378-.8-2.378-1.996 0-1.201 1.192-1.99 2.378-1.99zm-11.077 3.985c-1.184 0-2.383-.8-2.383-1.996 0-1.201 1.2-1.99 2.383-1.99 1.187 0 1.975.789 1.975 1.99 0 1.196-.788 1.996-1.975 1.996z" transform="translate(-8 -12)" fill="url(#a)" fill-rule="nonzero"/></svg>