<svg width="60" height="60" xmlns="http://www.w3.org/2000/svg"><g fill="none" fill-rule="evenodd"><path d="M-4-1h60v60H-4z"/><path d="M41.714 33.74s-1.062-4-3.009-6.438c0 0 1.062-2.02-.707-4.8 0 0-.425-12.002-11.998-12.002-11.573 0-11.998 12.001-11.998 12.001-1.769 2.781-.707 4.8-.707 4.8-1.947 2.439-3.009 6.44-3.009 6.44-.99 4.876.885 5.752 1.168 5.828.283.077.92-.685 1.133-1.028.212-.343.672-1.448.778-1.524.107-.076.284.571.284.571.743 2.477 2.335 4.267 2.335 4.267-1.592.61-2.69 1.791-2.69 1.791s-2.017 3.124 3.363 3.734c5.38.61 8.918-1.296 8.918-1.296h.85s3.539 1.905 8.918 1.296c5.38-.61 3.362-3.734 3.362-3.734s-1.097-1.181-2.69-1.79c0 0 1.593-1.791 2.336-4.268 0 0 .177-.647.284-.571.106.076.566 1.18.778 1.524.213.343.85 1.105 1.133 1.028.283-.076 2.159-.952 1.168-5.829z" fill="#13B5EC" fill-rule="nonzero"/></g></svg>
