<svg width="60" height="60" xmlns="http://www.w3.org/2000/svg"><g fill="none" fill-rule="evenodd"><path d="M-2-2h60v60H-2z"/><g fill-rule="nonzero"><path d="M28.027 10.005c-.689 0-1.365.042-2.031.12-1.631.184-3.194.59-4.664 1.181 0 0 12.118 11.966 12.441 12.41v-12.76a17.898 17.898 0 0 0-5.746-.951z" fill="#FA5452"/><path d="M40.685 15.204a17.611 17.611 0 0 0-1.52-1.348A17.884 17.884 0 0 0 35.03 11.4s.089 17.006 0 17.55l9.046-9.024c-.17-.341-.352-.68-.545-1.013a17.837 17.837 0 0 0-2.847-3.71z" fill="#6467F0"/><path d="M44.656 21.342s-11.99 12.09-12.438 12.413h12.79a17.734 17.734 0 0 0 .953-5.734c0-.686-.043-1.362-.121-2.026a17.673 17.673 0 0 0-1.184-4.653z" fill="#5283F0"/><path d="M26.87 35.098l9.045 9.024c.344-.17.68-.35 1.016-.543a17.81 17.81 0 0 0 3.72-2.84c.484-.484.932-.993 1.35-1.517a17.852 17.852 0 0 0 2.46-4.125s-17.046.089-17.592.001z" fill="#00B1FE"/><path d="M22.228 32.264v12.762a17.838 17.838 0 0 0 5.747.951c.685 0 1.363-.043 2.027-.12a17.869 17.869 0 0 0 4.665-1.183c.001 0-12.116-11.962-12.439-12.41z" fill="#66D020"/><path d="M20.955 26.941l-9.042 9.024c.169.345.352.683.544 1.014a17.667 17.667 0 0 0 2.847 3.713c.484.485.995.931 1.52 1.347a17.767 17.767 0 0 0 4.136 2.454s-.092-17.007-.005-17.552z" fill="#9AD122"/><path d="M10.655 23.335a17.787 17.787 0 0 0-.616 4.634c0 .684.043 1.362.121 2.025a17.539 17.539 0 0 0 1.185 4.652s11.989-12.09 12.437-12.41H10.99c-.123.358-.233.728-.335 1.099z" fill="#FFC817"/><path d="M18.983 12.472a17.804 17.804 0 0 0-3.72 2.839c-.49.486-.935.996-1.352 1.517a17.84 17.84 0 0 0-2.461 4.128s17.049-.09 17.593-.003l-9.044-9.024a18.94 18.94 0 0 0-1.016.543z" fill="#FF7612"/></g></g></svg>
