<svg width="36" height="36" xmlns="http://www.w3.org/2000/svg"><g fill-rule="nonzero" fill="none"><path d="M18.027.005c-.689 0-1.365.042-2.031.12-1.631.184-3.194.59-4.664 1.181 0 0 12.118 11.966 12.441 12.41V.957a17.898 17.898 0 0 0-5.746-.951z" fill="#F97F7D"/><path d="M30.685 5.204a17.611 17.611 0 0 0-1.52-1.348A17.884 17.884 0 0 0 25.03 1.4s.089 17.006 0 17.55l9.046-9.024c-.17-.341-.352-.68-.545-1.013a17.837 17.837 0 0 0-2.847-3.71z" fill="#8486EC"/><path d="M34.656 11.342s-11.99 12.09-12.438 12.413h12.79a17.734 17.734 0 0 0 .953-5.734c0-.686-.043-1.362-.121-2.026a17.673 17.673 0 0 0-1.184-4.653z" fill="#6691F0"/><path d="M16.87 25.098l9.045 9.024c.344-.17.68-.35 1.016-.543a17.81 17.81 0 0 0 3.72-2.84c.484-.484.932-.993 1.35-1.517a17.852 17.852 0 0 0 2.46-4.125s-17.046.089-17.592.001z" fill="#53C2F2"/><path d="M12.228 22.264v12.762a17.838 17.838 0 0 0 5.747.951c.685 0 1.363-.043 2.027-.12a17.869 17.869 0 0 0 4.665-1.183c.001 0-12.116-11.962-12.439-12.41z" fill="#87D554"/><path d="M10.955 16.941l-9.042 9.024c.169.345.352.683.544 1.014a17.667 17.667 0 0 0 2.847 3.713c.484.485.995.931 1.52 1.347a17.767 17.767 0 0 0 4.136 2.454s-.092-17.007-.005-17.552z" fill="#B8E653"/><path d="M.655 13.335a17.787 17.787 0 0 0-.616 4.634c0 .684.043 1.362.121 2.025a17.539 17.539 0 0 0 1.185 4.652s11.989-12.09 12.437-12.41H.99c-.123.358-.233.728-.335 1.099z" fill="#FFD54D"/><path d="M8.983 2.472a17.804 17.804 0 0 0-3.72 2.839c-.49.486-.935.996-1.352 1.517a17.84 17.84 0 0 0-2.461 4.128s17.049-.09 17.593-.003L9.999 1.929a18.94 18.94 0 0 0-1.016.543z" fill="#FF9A50"/></g></svg>