<svg width="492" height="152" xmlns="http://www.w3.org/2000/svg" xmlns:xlink="http://www.w3.org/1999/xlink"><defs><linearGradient x1="64.057%" y1="240.008%" x2="64.057%" y2="16.296%" id="c"><stop stop-color="#FAB113" offset="0%"/><stop stop-color="#FFF" offset="100%"/></linearGradient><path d="M62.613 98.486H25.046l2.084-7.872a97.06 97.06 0 0 1-9.758 2.892c-3.156.75-6.123 1.339-8.9 1.767l2.807-10.602a85.224 85.224 0 0 0 8.898-1.607 72.4 72.4 0 0 0 8.735-2.65 66.18 66.18 0 0 0 8.505-3.896c2.803-1.526 5.553-3.36 8.252-5.502h11.43a23.589 23.589 0 0 0 5.078 5.422 34.57 34.57 0 0 0 6.432 3.935 43.77 43.77 0 0 0 7.36 2.691 66.017 66.017 0 0 0 7.808 1.607l-2.808 10.602a85.466 85.466 0 0 1-8.173-1.887 66.572 66.572 0 0 1-8.077-2.852l-2.106 7.952zm10.398 3.293a502.717 502.717 0 0 1-2.81 6.988c-1.053 2.57-2.2 5.087-3.438 7.55h8.873l-2.66 10.04H0l2.659-10.04h8.952c.33-2.249.63-4.645.905-7.188.274-2.544.403-4.994.387-7.35h10.072a64.701 64.701 0 0 1-.388 7.35c-.274 2.543-.575 4.94-.905 7.188h13.589c.329-2.249.63-4.645.904-7.188.274-2.544.403-4.994.388-7.35h10.071a64.701 64.701 0 0 1-.388 7.35c-.273 2.543-.575 4.94-.904 7.188h11.35a107.974 107.974 0 0 0 3.438-7.55c1.054-2.57 1.99-4.9 2.81-6.988h10.071zM38.18 47.08a33.694 33.694 0 0 1-1.607 4.257h18.624l-2.637 9.96h-6.635l.031 8.032h-11.19l-.03-8.032h-3.997a24.166 24.166 0 0 1-6.701 5.382c-2.554 1.392-5.587 2.383-9.1 2.972l3.02-11.406c2.48-.91 4.416-2.236 5.81-3.976 1.393-1.74 2.6-4.136 3.622-7.189h10.79zm37.728 0a33.694 33.694 0 0 1-1.607 4.257h18.544l-2.638 9.96h-6.394l.03 8.032h-11.19l-.03-8.032h-4.157a24.166 24.166 0 0 1-6.7 5.382c-2.554 1.392-5.587 2.383-9.1 2.972l3.02-11.406c2.48-.91 4.415-2.236 5.809-3.976 1.393-1.74 2.6-4.136 3.622-7.189h10.79zM49.036 79.13a58.56 58.56 0 0 1-7.676 5.14 78.192 78.192 0 0 1-8.62 4.177h27.736a46.25 46.25 0 0 1-6.258-4.137 30.693 30.693 0 0 1-5.182-5.18zm83.714-4.177l-1.487-10.683h11.83l1.647 10.683-2.66 10.04H99.079l2.659-10.04 10.095-15.18h-7.434l2.66-10.041h45.72l-2.66 10.04h-26.376l-10.015 15.18h19.023zm-7.474 12.53l-2.17 8.193h15.826l-2.659 10.04h-15.826l-2.404 9.076a948.511 948.511 0 0 0 17.723-1.124l-2.659 10.04a669.656 669.656 0 0 1-23.221 1.365c-7.759.322-15.443.563-23.052.723l2.659-10.04c5.769-.054 11.646-.214 17.632-.482l2.531-9.558H93.75l2.659-10.04h15.906l2.17-8.193h10.79zm59.627-39.84l-18.122 68.434a12.96 12.96 0 0 1-1.874 4.057 14.68 14.68 0 0 1-3.11 3.293 15.262 15.262 0 0 1-3.902 2.209c-1.394.535-2.81.803-4.25.803h-13.508l2.638-9.96h9.112c1.12 0 2.171-.402 3.157-1.205.985-.803 1.62-1.74 1.903-2.811l17.166-64.82h10.79zm-17.922 6.105l-14.698 55.502h-10.71l14.697-55.502h10.71zm91.355 52.69h-10.39l8.103-30.602h-18.304l-8.104 30.603H219.25l10.635-40.16h13.189L246 59.45h-15.027l2.552-9.639h40.525L271.5 59.45h-14.707l-2.927 6.827h15.106l-10.635 40.16zm-62.282 9.72l12.787-22.33h-24.698l2.637-9.96h12.39l2.722-10.28h10.79l-2.722 10.28h12.39l-2.638 9.96-18.963 32.37H186.44l-2.588-25.542h10.631l1.57 15.502zM240.46 79.77h10.79l-5.083 19.197c-.667 2.517-.796 4.766-.388 6.747.407 1.981 1.126 3.695 2.155 5.14a12.423 12.423 0 0 0 3.75 3.494c1.472.884 2.972 1.46 4.5 1.727L253.29 127c-3.67-.428-7.022-1.606-10.055-3.534-3.033-1.928-5.302-4.578-6.807-7.952-3.344 3.374-7.043 6.024-11.098 7.952-4.054 1.928-8.03 3.106-11.926 3.534l2.893-10.924c1.67-.267 3.474-.843 5.413-1.727 1.939-.883 3.806-2.048 5.601-3.494 1.795-1.445 3.421-3.159 4.878-5.14 1.458-1.981 2.52-4.23 3.186-6.747l5.084-19.197zm-20.822-32.45c-.07 1.874.08 3.722.451 5.542.37 1.821.933 3.521 1.687 5.1.754 1.58 1.664 2.973 2.73 4.178 1.067 1.204 2.26 2.128 3.583 2.77l-3.084 11.647a20.75 20.75 0 0 1-4.792-2.128 18.464 18.464 0 0 1-4.23-3.494c-1.257-1.392-2.33-3.026-3.219-4.9-.89-1.874-1.475-3.99-1.757-6.345-1.583 2.356-3.315 4.471-5.197 6.345-1.882 1.874-3.82 3.508-5.814 4.9a38.417 38.417 0 0 1-6.08 3.494c-2.06.937-4.033 1.646-5.92 2.128l3.085-11.646c1.662-.643 3.345-1.567 5.05-2.771a38.85 38.85 0 0 0 4.943-4.177 43.038 43.038 0 0 0 4.388-5.1 37.097 37.097 0 0 0 3.386-5.543h10.79zm122.692 78.635h-47.319l2.659-10.04h18.304l14.507-54.78h-17.185l2.658-10.04h45.081l-2.658 10.04H341.19l-14.506 54.78h18.304l-2.659 10.04zM296.57 109.81h-28.056l2.574-9.719 16.375-19.277h-11.27l2.659-10.04L297.057 47h11.67L290.6 70.775h5.355l5.682-6.667h12.15L283.86 99.851h15.346l-2.637 9.96zm-4.654 16.065H264.26l2.659-10.04h27.656l-2.659 10.04zM398.124 47.32c-.348.91-.702 1.794-1.062 2.65a30.74 30.74 0 0 1-1.179 2.49H446l-12.869 48.595a11.591 11.591 0 0 1-1.748 3.735 14.656 14.656 0 0 1-2.887 3.052 14.168 14.168 0 0 1-3.59 2.089c-1.28.508-2.587.763-3.919.763h-8.473l2.66-10.04h4.076c.906 0 1.746-.308 2.522-.924.776-.616 1.285-1.379 1.526-2.29l9.253-34.939h-43.243c-2.432 2.945-5.143 5.435-8.133 7.47h37.408l-9.572 36.144h-32.292l-1.66 6.266c-.297 1.124-.15 2.074.445 2.85.593.777 1.423 1.166 2.489 1.166h54.033l-2.659 10.04H368.54c-2.238 0-3.911-.777-5.018-2.33-1.108-1.552-1.364-3.453-.768-5.702l11.869-44.82c-2.16.91-4.241 1.526-6.245 1.848l2.893-10.924c3.467-1.017 6.58-3.066 9.34-6.145 2.761-3.079 5.002-6.76 6.722-11.044h10.79zm7.03 32.61h-21.5l-4.276 16.145h21.501l4.275-16.144z" id="b"/><filter x="-8.5%" y="-46.2%" width="117%" height="195%" filterUnits="objectBoundingBox" id="a"><feOffset dy="1" in="SourceAlpha" result="shadowOffsetOuter1"/><feGaussianBlur stdDeviation="12.5" in="shadowOffsetOuter1" result="shadowBlurOuter1"/><feColorMatrix values="0 0 0 0 0.917862457 0 0 0 0 0.194645785 0 0 0 0 0.0237759116 0 0 0 1 0" in="shadowBlurOuter1"/></filter><linearGradient x1="107.815%" y1="0%" x2="0%" y2="0%" id="d"><stop stop-color="#FFF" stop-opacity="0" offset="0%"/><stop stop-color="#FFF" offset="100%"/></linearGradient></defs><g fill="none" fill-rule="evenodd"><g transform="translate(23)"><use fill="#000" filter="url(#a)" xlink:href="#b"/><use fill="url(#c)" xlink:href="#b"/></g><path d="M191.654.357c-.436.908-.9 1.821-1.392 2.74a60.343 60.343 0 0 1-1.605 2.805h6.667l-.53 1.686h-1.219a75.057 75.057 0 0 1-3.167 7.458 49.014 49.014 0 0 1-3.99 6.712c.101 1.514.275 2.93.522 4.248.247 1.319.553 2.519.918 3.6l-2.022 1.33a20.514 20.514 0 0 1-.898-3 31.039 31.039 0 0 1-.565-3.551c-2.016 2.4-4.378 4.605-7.084 6.615l-.92-1.556a29.54 29.54 0 0 0 4.223-3.486 37.346 37.346 0 0 0 3.605-4.167 50.868 50.868 0 0 1 .133-5.205c.134-1.783.35-3.518.645-5.204-.37.497-.742.983-1.116 1.459-.374.476-.744.919-1.108 1.33l-1.123-1.525c1.472-1.686 2.884-3.626 4.238-5.82A72.863 72.863 0 0 0 189.586 0l2.068.357zM174.036 8.56c-.034.108-.026.2.025.275.051.076.13.114.237.114h2.084l2.727-8.658h2.18L178.56 8.95h2.052a.5.5 0 0 0 .308-.114.553.553 0 0 0 .2-.275l2.022-6.42h2.18l-2.248 7.133c-.13.41-.361.74-.696.99a1.82 1.82 0 0 1-1.111.372h-8.72c-.362 0-.633-.124-.811-.373-.178-.249-.21-.557-.094-.924l2.268-7.199h2.148l-2.023 6.42zm-2.178 11.187c-.384 0-.641.205-.77.616l-.603 1.913a39.628 39.628 0 0 1-.94 2.675c-.312.79-.661 1.524-1.047 2.205a13.83 13.83 0 0 1-1.334 1.946 19.588 19.588 0 0 1-1.757 1.865l-1.49-1.07a14.065 14.065 0 0 0 1.558-1.638c.44-.551.824-1.124 1.15-1.719.326-.594.616-1.226.87-1.897.254-.67.503-1.394.749-2.172l1.01-3.21c.103-.325.305-.611.608-.86.303-.248.636-.373.999-.373h7.02c.342 0 .582.12.721.357.139.238.157.519.055.843l-1.849 5.87a.492.492 0 0 0 .021.34c.048.119.175.124.38.016l2.27-1.102-.674 2.14-2.684 1.297c-.686.346-1.229.389-1.628.13-.4-.26-.49-.736-.272-1.427l1.93-6.129c.13-.41.003-.616-.382-.616h-3.91zM160 30.935l4.147-13.165c-.478.432-.97.86-1.477 1.28-.507.422-1.042.85-1.606 1.282l-.14-2.303c.852-.67 1.646-1.34 2.38-2.01a46.06 46.06 0 0 0 4.11-4.248 63.727 63.727 0 0 0 1.943-2.4l1.543 1.006a93.785 93.785 0 0 1-1.79 2.22c-.585.703-1.2 1.4-1.845 2.092l-5.117 16.246H160zm27.71-23.347a49.904 49.904 0 0 0-1.034 5.723 48.13 48.13 0 0 0-.345 5.367 48.062 48.062 0 0 0 2.835-5.334 75.54 75.54 0 0 0 2.326-5.756h-3.783zM173.22.973a53.077 53.077 0 0 1-3.78 4.475c-1.348 1.426-2.898 2.853-4.65 4.28l-.721-1.783a37.481 37.481 0 0 0 3.974-3.713 51.692 51.692 0 0 0 3.519-4.2l1.659.94zm7.992 12.484l-.53 1.686h-11.316l1.14-1.686h10.706zM226.91.39l.242 2.692h3.045l-.541 1.718h-9.392l-.634 2.01h7.277c.384 0 .664.13.839.39.175.26.2.583.078.973l-3.422 10.863h-2.18l.818-2.595h-6.443l-.644 2.043h-2.148l.644-2.043h-6.347l-.817 2.595h-2.212l3.432-10.896c.116-.367.348-.68.697-.94.35-.26.705-.39 1.068-.39h7.213l.633-2.01H208.5l1.31-1.718h8.847l.94-2.984h2.148l-.94 2.984h4.167l-.204-2.303L226.91.39zM206.447.324l-2.727 8.658h3.302l-.542 1.719h-3.301l-6.385 20.267h-2.147L201.03 10.7h-3.654l1.182-1.719h3.013L204.3.324h2.147zm15.421 19.327l-.5 1.589h3.077l-.531 1.686h-3.078l-2.012 6.388a2.316 2.316 0 0 1-.301.6c-.14.205-.304.389-.494.551-.19.162-.413.292-.668.39-.255.096-.54.134-.853.113l-5.357-.292.582-1.849 4.117.26c.229.021.449-.033.66-.162.212-.13.37-.357.471-.681l1.676-5.318h-16.22l1.204-1.686h15.547l.5-1.59h2.18zm-4.73-4.93h6.443l.705-2.237h-6.443l-.705 2.238zm1.951-6.193l-.705 2.238h6.443l.552-1.751c.102-.325.003-.487-.296-.487h-5.994zm-10.446 6.194h6.347l.705-2.238h-6.347l-.705 2.238zm1.247-3.956h6.346l.705-2.238h-5.866a.651.651 0 0 0-.377.13.72.72 0 0 0-.267.39l-.541 1.718zm-3.455 13.003l4.346 3.502-1.748 1.783-4.263-3.664 1.665-1.621zm34.777 5.318c2.786-1.384 5.299-2.983 7.538-4.8a24.485 24.485 0 0 1-1.612-3.94 21.367 21.367 0 0 1-.872-4.458 57.192 57.192 0 0 1-3.996 7.701c-1.521 2.454-3.393 4.87-5.617 7.248l-1.449-1.2a36.812 36.812 0 0 0 4.676-5.788 51.627 51.627 0 0 0 3.535-6.388 70.473 70.473 0 0 0 2.764-6.89c.813-2.379 1.611-4.81 2.394-7.297h-3.013l1.15-1.719h13.303c.62 0 1.016.168 1.188.503.172.335.074.784-.296 1.346l-6.234 8.496h4.552c.64 0 1.042.183 1.205.55.162.368.058.866-.31 1.493-1.023 1.686-2.237 3.42-3.643 5.204-1.406 1.783-3.048 3.518-4.925 5.205a16.572 16.572 0 0 0 2.117 2.642 22.562 22.562 0 0 0 2.386 2.092l-1.812 1.783a16.93 16.93 0 0 1-2.42-2.189 19.442 19.442 0 0 1-2.108-2.772 43.28 43.28 0 0 1-3.638 2.594 44.996 44.996 0 0 1-4.133 2.335l-.73-1.751zm1.48-29.022l-2.012 6.388h4.36l-.542 1.719h-4.359l-.878 2.788 1.967-.648.247 8.171-2.24 1.005-.179-7.88L232.948 31H230.8l5.7-18.094a113.825 113.825 0 0 1-3.84 6.745 60.1 60.1 0 0 1-4.339 6.193l-1.227-1.394a74.43 74.43 0 0 0 5.485-8.204 112.252 112.252 0 0 0 4.226-8.074h-4.36l1.183-1.72h4.905l2.012-6.387h2.148zm8.029 3.21c-.45 1.427-.894 2.821-1.334 4.183-.44 1.362-.9 2.702-1.379 4.021.04 2.313.294 4.394.759 6.242.464 1.849 1.082 3.519 1.851 5.01a38.791 38.791 0 0 0 7.4-9.144h-4.936c-.47 0-.765-.184-.884-.551-.12-.368-.036-.768.25-1.2l6.254-8.56h-7.981zm24.79 6.29c.13-.41.36-.734.69-.972.332-.238.712-.357 1.139-.357h7.052l1.113-3.534h-9.712l1.343-1.719h8.91l.869-2.756h2.148l-.869 2.756h9.617l-.542 1.719h-9.616l-1.113 3.534h6.988c.427 0 .735.125.924.373.189.249.218.579.089.99l-1.89 5.998c-.13.411-.368.746-.717 1.006-.349.259-.737.389-1.164.389h-6.988l-3.218 10.214h-2.148l2.626-8.334a91.487 91.487 0 0 1-2.754 2.027 76.684 76.684 0 0 1-3.032 2.043 97.341 97.341 0 0 1-3.002 1.848 56.18 56.18 0 0 1-2.645 1.476l-.633-1.654c.792-.41 1.693-.913 2.703-1.508a82.5 82.5 0 0 0 6.213-4.053 60.544 60.544 0 0 0 2.716-2.06h-6.058c-.427 0-.723-.13-.887-.388-.164-.26-.185-.584-.062-.973l1.91-6.064zm-10.94 3.795l1.183-1.719h3.814c.534 0 .907.157 1.118.47.211.314.235.73.072 1.249l-3.075 9.76c-.28.887-.35 1.686-.211 2.4.139.713.425 1.313.86 1.8.434.486.984.859 1.65 1.118.667.26 1.374.39 2.122.39h18.079l-.532 1.686H271.06c-.812 0-1.548-.108-2.206-.325a5.55 5.55 0 0 1-1.696-.875 4.354 4.354 0 0 1-1.13-1.297 3.62 3.62 0 0 1-.467-1.622l-4.957 4.443-.994-1.524 4.821-4.216c.324-.28.54-.524.647-.73.107-.205.209-.459.304-.761l3.085-9.793c.095-.303-.007-.454-.306-.454h-3.59zm13.392-3.437a.544.544 0 0 0-.34.113.553.553 0 0 0-.2.276l-1.43 4.54c-.088.28.007.421.284.421h5.898l1.686-5.35h-5.898zm12.226 5.35a.53.53 0 0 0 .303-.097.589.589 0 0 0 .214-.325l1.42-4.507c.089-.28-.006-.421-.284-.421h-5.834l-1.685 5.35h5.866zm-4.694 2.691l6.043 6.356-1.782 1.589-6.024-6.42 1.763-1.525zM271.934.876l1.37 6.03-2.411 1.039-1.285-6.097 2.326-.972zm47.49 11.868a28.9 28.9 0 0 0 .192 4.02c.159 1.363.4 2.714.727 4.054a50.11 50.11 0 0 0 3.706-4.896 34.157 34.157 0 0 0 2.785-5.027h-9.937l-1.808 5.74a71.167 71.167 0 0 1-2.778 7.393c-1.041 2.357-2.411 4.637-4.11 6.842l-1.712-.875a26.762 26.762 0 0 0 1.807-2.53 27.59 27.59 0 0 0 1.639-3.015 51.698 51.698 0 0 0 1.534-3.648 83.424 83.424 0 0 0 1.543-4.491l4.208-13.36c.143-.454.4-.81.77-1.07s.783-.4 1.239-.422a88.846 88.846 0 0 0 6.683-.356c2.07-.195 4.1-.498 6.088-.908l-.167 1.75c-.845.174-1.797.33-2.857.47-1.059.141-2.135.266-3.226.374-1.092.108-2.158.2-3.197.275a61.3 61.3 0 0 1-2.754.146.626.626 0 0 0-.383.146.691.691 0 0 0-.251.34l-1.737 5.513h10.482c.727 0 1.142.173 1.247.519.105.346.047.767-.174 1.265-.78 1.73-1.853 3.626-3.219 5.69-1.366 2.065-2.974 4.135-4.825 6.21a24.503 24.503 0 0 0 1.36 3.47 18.575 18.575 0 0 0 1.8 2.983l-1.997 1.557a18.795 18.795 0 0 1-1.615-2.708 29.028 29.028 0 0 1-1.39-3.324 51.752 51.752 0 0 1-6.985 6l-1.039-1.59c1.214-.8 2.45-1.74 3.71-2.82 1.26-1.082 2.5-2.27 3.72-3.568a42.845 42.845 0 0 1-.987-4.702 31.525 31.525 0 0 1-.368-4.734l2.276-.713zM313.481.064l-2.84 9.015h2.885l-.53 1.687h-9.104l-1.522 4.831h6.09c.428 0 .732.135.914.406.182.27.205.621.069 1.053l-4.168 13.23h-2.147l3.892-12.354c.136-.432 0-.649-.405-.649h-4.776a65.474 65.474 0 0 1-1.205 3.47 44.705 44.705 0 0 1-1.515 3.535 39.048 39.048 0 0 1-1.868 3.437 24.765 24.765 0 0 1-2.299 3.178l-1.596-1.038a23.957 23.957 0 0 0 1.833-2.513 31.539 31.539 0 0 0 1.65-2.95 44.12 44.12 0 0 0 1.547-3.535 67.703 67.703 0 0 0 1.477-4.232l4.832-15.338h2.18l-2.452 7.782h4.07l2.84-9.014h2.148z" fill="#FFF" opacity=".8"/><path fill="url(#d)" opacity=".4" d="M325 14h80v2h-80z" transform="translate(23)"/><path fill="url(#d)" opacity=".4" transform="matrix(-1 0 0 1 185 0)" d="M41 14h80v2H41z"/></g></svg>
